<?xml version="1.0" encoding="UTF-8" standalone="no"?>
<!DOCTYPE svg PUBLIC "-//W3C//DTD SVG 1.1//EN" "http://www.w3.org/Graphics/SVG/1.1/DTD/svg11.dtd">
<svg width="100%" height="100%" viewBox="0 0 204 80" version="1.1" xmlns="http://www.w3.org/2000/svg" xmlns:xlink="http://www.w3.org/1999/xlink" xml:space="preserve" xmlns:serif="http://www.serif.com/" style="fill-rule:evenodd;clip-rule:evenodd;stroke-linejoin:round;stroke-miterlimit:2;">
    <g id="Artboard1" transform="matrix(1,0,0,0.794066,0,0)">
        <rect x="0" y="0" width="203.764" height="100" style="fill:none;"/>
        <g transform="matrix(0.0855321,0,0,0.107714,-10.138,-192.19)">
            <path d="M1278.53,2000.99L1165.81,2000.99L1165.81,2495.92L1448.93,2495.92L1448.93,2396.99L1278.53,2396.99L1278.53,2000.99Z" style="fill-rule:nonzero;"/>
            <g transform="matrix(1,0,0,1,-5.2,0)">
                <rect x="1504.81" y="2000.99" width="112.725" height="494.925" style="fill-rule:nonzero;"/>
            </g>
            <g transform="matrix(1,0,0,1,-26.6,0)">
                <path d="M1975.73,2000.99L1689.61,2000.99L1689.61,2495.92L1802.33,2495.92L1802.33,2297.32L1962.53,2297.32L1962.53,2198.39L1802.33,2198.39L1802.33,2099.92L1975.73,2099.92L1975.73,2000.99Z" style="fill-rule:nonzero;"/>
            </g>
            <g transform="matrix(1,0,0,1,30,0)">
                <path d="M1969.81,2099.92L2087.41,2099.92L2087.41,2495.92L2200.13,2495.92L2200.13,2099.92L2317.73,2099.92L2317.73,2000.99L1969.81,2000.99L1969.81,2099.92Z" style="fill-rule:nonzero;"/>
            </g>
        </g>
        <g transform="matrix(0.0414586,0,0,0.0522105,35.7973,47.3895)">
            <g transform="matrix(24.1204,0,0,24.1204,-863.448,-907.661)">
                <path d="M42.016,2.799C29.967,2.799 20.185,15.758 20.185,31.719C20.185,46.815 30.72,58.77 37.153,64.664L37.153,65.743L37.131,65.743C37.131,65.743 13.095,48.117 13.095,31.719C13.095,15.758 26.054,2.799 42.016,2.799ZM42.016,2.799C57.978,2.799 70.937,15.758 70.937,31.719C70.937,47.534 47.66,65.142 46.879,65.728L46.879,64.664C53.313,58.771 63.847,46.815 63.847,31.719C63.847,15.758 54.065,2.799 42.016,2.799ZM42.016,2.799C48.94,2.799 54.561,15.758 54.561,31.719C54.561,45.904 49.216,57.317 45.503,63.532C44.513,63.676 43.311,64.528 42.016,64.528C40.721,64.528 39.519,63.676 38.529,63.532C34.817,57.316 29.472,45.904 29.472,31.719C29.472,15.758 35.092,2.799 42.016,2.799L42.016,2.799Z"/>
            </g>
            <g transform="matrix(0.913887,0,0,1,-4152.58,-1165.25)">
                <path d="M4579.65,1973.4C4609.25,1935.02 4655.75,1973.4 4708,1973.4C4760.25,1973.4 4806.75,1935.02 4836.35,1973.4L4836.35,2067.91C4836.35,2088.6 4819.55,2105.41 4798.85,2105.41L4617.15,2105.41C4596.45,2105.41 4579.65,2088.6 4579.65,2067.91L4579.65,1973.4Z"/>
            </g>
        </g>
    </g>
</svg>
