<?xml version="1.0" encoding="UTF-8" standalone="no"?>
<!DOCTYPE svg PUBLIC "-//W3C//DTD SVG 1.1//EN" "http://www.w3.org/Graphics/SVG/1.1/DTD/svg11.dtd">
<svg width="100%" height="100%" viewBox="0 0 139 33" version="1.1" xmlns="http://www.w3.org/2000/svg" xmlns:xlink="http://www.w3.org/1999/xlink" xml:space="preserve" xmlns:serif="http://www.serif.com/" style="fill-rule:evenodd;clip-rule:evenodd;stroke-linejoin:round;stroke-miterlimit:2;">
    <g id="g12" transform="matrix(1,0,0,1,0,0.075)">
        <path id="path14" d="M42.8,21C42.4,21.1 41.9,21.2 41.4,21.2C40.4,21.2 40,20.6 40,19.6L40,15.1L42.8,15.1C43.5,15.1 44.2,14.6 44.2,13.8C44.2,13 43.6,12.5 42.8,12.5L40,12.5L40,11C40,10.1 39.3,9.5 38.5,9.5C37.7,9.5 37,10.2 37,11L37,19.7C37,22.2 38.2,24 41,24C41.8,24 42.9,23.9 43.7,23.5C44.4,23.2 44.6,22.7 44.6,22.2C44.6,21.5 43.9,20.8 42.8,21ZM52.8,12.1C52.4,12 51.6,11.9 50.9,11.9C48.4,11.9 47,13.4 47,15.7L47,22.5C47,23.3 47.7,24 48.5,24C49.3,24 50,23.3 50,22.5L50,16.3C50,15.3 50.4,14.9 51.1,14.9C51.8,14.9 52.2,15.1 52.8,15.1C53.7,15.1 54.2,14.3 54.2,13.7C54.1,12.9 53.7,12.4 52.8,12.1ZM61.1,11.9C58.3,11.9 56.3,13.7 56,16.6C56,17.3 55.9,18.5 56,19.4C56.2,22.2 58.2,24.1 61.2,24.1C62.6,24.1 63.9,23.8 64.7,23.3C65.3,22.9 65.4,22.5 65.4,22.1C65.4,21.3 64.7,20.5 63.5,20.9C62.8,21.2 62,21.4 61.2,21.4C59.8,21.4 58.7,20.7 58.7,19.3L58.7,19L64.4,19C65.4,19 65.9,18.4 65.9,17.5L65.9,17C66,13.9 64,11.9 61.1,11.9ZM63,17L58.8,17C58.8,15.5 59.5,14.5 61.1,14.5C62.5,14.5 63.3,15.4 63.2,16.7C63.2,16.9 63.2,17 63,17ZM73.1,11.9C70.3,11.9 68.3,13.7 68,16.6C68,17.3 67.9,18.5 68,19.4C68.2,22.2 70.2,24.1 73.2,24.1C74.6,24.1 75.9,23.8 76.7,23.3C77.3,22.9 77.4,22.5 77.4,22.1C77.4,21.3 76.7,20.5 75.5,20.9C74.8,21.2 74,21.4 73.2,21.4C71.8,21.4 70.7,20.7 70.7,19.3L70.7,19L76.4,19C77.4,19 77.9,18.4 77.9,17.5L77.9,17C78,13.9 76,11.9 73.1,11.9ZM75,17L70.8,17C70.8,15.5 71.5,14.5 73.1,14.5C74.5,14.5 75.3,15.4 75.2,16.7C75.2,16.9 75.2,17 75,17ZM123.6,16.9L122,16.5C121,16.3 120.7,16 120.7,15.5C120.7,15 121.2,14.6 122.3,14.6C122.9,14.6 123.6,14.8 124.2,15.1C124.9,15.5 125.7,15.4 126.1,14.9C126.6,14.4 126.6,13.5 126,12.9C125.2,12.3 123.8,11.9 122.4,11.9C119.8,11.9 117.9,13.2 117.9,15.6C117.9,17.5 119.3,18.5 121.1,19C122,19.2 121.9,19.2 122.7,19.4C123.6,19.6 124,20 124,20.4C124,21 123.5,21.4 122.3,21.4C121.3,21.4 120.4,21.1 119.7,20.7C119,20.2 118.2,20.4 117.8,21C117.4,21.6 117.5,22.4 118.1,22.8C118.9,23.5 120.2,24.1 122.3,24.1C124.9,24.1 126.9,22.7 126.9,20.3C126.9,18.5 125.8,17.4 123.6,16.9ZM137.5,19C138.5,19 139,18.4 139,17.5L139,17C139,13.9 137,11.9 134.1,11.9C131.3,11.9 129.3,13.7 129,16.6C129,17.3 128.9,18.5 129,19.4C129.2,22.2 131.2,24.1 134.2,24.1C135.6,24.1 136.9,23.8 137.7,23.3C138.3,22.9 138.4,22.5 138.4,22.1C138.4,21.3 137.7,20.5 136.5,20.9C135.8,21.2 135,21.4 134.2,21.4C132.8,21.4 131.7,20.7 131.7,19.3L131.7,19L137.5,19ZM134.1,14.5C135.5,14.5 136.3,15.4 136.2,16.7C136.2,16.9 136.1,17 136,17L131.8,17C131.8,15.5 132.6,14.5 134.1,14.5ZM97.5,11.9C94.5,11.9 92.3,13.8 92,16.4C91.9,17.3 91.9,18.7 92,19.6C92.2,22.2 94.5,24.1 97.5,24.1C100.5,24.1 102.7,22.2 102.9,19.6C103,18.7 103,17.4 102.9,16.5C102.7,13.8 100.5,11.9 97.5,11.9ZM99.9,19.1C99.8,20.4 98.9,21.2 97.5,21.2C96.1,21.2 95.2,20.3 95.1,19.1L95.1,16.9C95.2,15.6 96.1,14.8 97.5,14.8C98.9,14.8 99.8,15.7 99.9,16.9C100,17.5 100,18.5 99.9,19.1ZM85.6,11.9C84.5,11.9 83.3,12.3 82.9,12.8L82.9,9.6C82.9,8.7 82.3,8.1 81.5,8.1C80.7,8.1 80.1,8.8 80.1,9.6L80.1,22.5C80.1,23.3 80.8,24 81.6,24C82.4,24 83,23.3 83,22.5L83,15.8C83.5,15.3 84.3,14.9 85.3,14.9C86.5,14.9 87.2,15.6 87.2,17L87.2,22.5C87.2,23.4 87.8,24.1 88.6,24.1C89.5,24.1 90.1,23.4 90.1,22.5L90.1,16.8C90,13.6 88.4,11.9 85.6,11.9ZM113.6,12C112.8,12 112.1,12.7 112.1,13.5L112.1,20.6C111.6,20.9 110.9,21.2 110,21.2C108.8,21.2 107.9,20.5 107.9,19.1L107.9,13.5C107.9,12.6 107.2,11.9 106.4,11.9C105.5,11.9 105,12.6 105,13.5L105,19.2C105,22.3 106.8,24 109.9,24C112.2,24 113.8,23.2 114.5,22.7C114.9,22.5 115,22.2 115,21.7L115,13.5C115,12.7 114.4,12 113.6,12Z" style="fill:rgb(93,206,128);fill-rule:nonzero;"/>
        <path id="path16" d="M28.4,7C28,6.8 27.1,6.4 26.1,5.8C25,5.2 23.3,6.2 22.2,7.9L20.3,11.1C19.6,12.5 19.7,14 20.6,15.3L20.7,15.4C21.6,16.7 22.8,17.8 23.1,18.2C23.3,18.4 23.5,18.8 23.6,19.1C23.9,20.3 23.3,21.4 22.1,21.7C21,22 19.8,21.3 19.4,20.2C19.3,19.9 19.3,19.6 19.3,19.3C19.4,18.8 19.2,18 18.5,17.4C17.8,16.6 16.4,18.1 16,19.5L16,19.6C15.6,21.1 15.3,22.3 15.4,22.4C15.4,22.5 15.5,22.6 15.5,22.6C16.1,23.8 15.7,25.2 14.5,25.8C13.3,26.4 11.8,26 11.2,24.8C10.6,23.6 11,22.2 12.2,21.6C12.3,21.6 12.3,21.5 12.4,21.5C12.5,21.5 12.7,20.8 13,20.1C13.2,19.4 13.4,18.8 13.4,18.8C13.4,18.7 13.4,18.6 13.5,18.6L14.7,14.4L13.5,16.9C13.3,16.4 13.1,16.4 12.5,16.8C12.2,17 11.6,17.5 11.4,17.7C10.9,18.1 10.5,18.8 10.3,19.2C10.2,19.5 10,19.7 9.8,19.9C8.9,20.7 7.5,20.5 6.8,19.6C6.1,18.7 6.3,17.5 7.2,16.8C7.5,16.6 7.8,16.4 8.1,16.4C8.6,16.3 10.5,15.1 11.6,14.4C11.8,14.3 12,14.1 12.1,14L15,11.9L12.4,13.3L11.8,13.3C11,13.4 10,13.5 9.8,13.8C9.7,13.9 9.6,14.1 9.4,14.2C8.6,14.6 7.4,14.4 6.7,13.6C6.1,12.7 6.3,11.6 7.1,11C7.6,10.7 8,10.6 8.4,10.6C9.1,10.6 10.9,11 12.4,10.7L12.8,10.6C14.3,10.3 16.1,9.1 16.8,7.7C16.8,7.7 17.5,6.4 18.4,5C19.3,3.5 19.2,1.9 18.3,1.3L16.6,0.3C15.7,-0.2 14.3,-0.2 13.4,0.3L1.6,6.8C0.7,7.3 0,8.6 0,9.6L0,22.4C0,23.4 0.7,24.5 1.6,25L13.5,31.6C14.4,32.1 15.8,32.1 16.7,31.6L28.4,24.9C29.3,24.4 30,23.3 30,22.3L30,9.6C30,8.6 29.3,7.5 28.4,7Z" style="fill:rgb(93,206,128);fill-rule:nonzero;"/>
    </g>
</svg>
